<?xml version="1.0" encoding="utf-8" standalone="yes"?>
<!DOCTYPE svg PUBLIC "-//W3C//DTD SVG 1.1//EN" "http://www.w3.org/Graphics/SVG/1.1/DTD/svg11.dtd">
<svg style="fill:none;stroke:none;fill-rule:evenodd;clip-rule:evenodd;stroke-linecap:round;stroke-linejoin:round;stroke-miterlimit:1.5;" version="1.1" xmlns="http://www.w3.org/2000/svg" xmlns:xlink="http://www.w3.org/1999/xlink" width="936" height="750" viewBox="0 0 936 750"><style class="text-font-style fontImports" data-font-family="Roboto">@import url(https://fonts.googleapis.com/css2?family=Roboto:wght@400;700&amp;amp;display=block);</style><rect id="" x="0" y="0" width="936" height="750" style="fill: #ffffff;"></rect><g id="items" style="isolation: isolate"><g id="blend" style="mix-blend-mode: normal"><g id="g-root-tf_zlapigwtmuiy-fill" data-item-order="-1053000"><g id="tf_zlapigwtmuiy-fill-merged" stroke="none" fill="#ffffff" fill-opacity="1"><g><path d="M0 0 H936 V750 H0 V0"></path></g></g></g><g id="g-root-cp_0_g-0_1ha2tnswtr210-fill" data-item-order="-570086" transform="translate(356, 170)"><g id="cp_0_g-0_1ha2tnswtr210-fill-merged" stroke="none" fill="#666666" fill-opacity="1"><g><path d="M460 64L550 10 V25.204L472 72.009 V126L382 180.012 V233.982L292 288.009 V342L202 396.009 V450.109L100 511.609L10 457.609 V442L100 496L190 442 V388L280 334 V280L370 226 V172.003L460 118 V64"></path></g></g><g id="cp_0_g-0_1ha2tnswtr210-fill-merged" stroke="none" fill="#666666" fill-opacity="1"><g><path d="M460 64L370 10 V64L460 118 V64"></path></g></g><g id="cp_0_g-0_1ha2tnswtr210-fill-merged" stroke="none" fill="#666666" fill-opacity="1"><g><path d="M370 172L280 118 V172L370 226 V172"></path></g></g><g id="cp_0_g-0_1ha2tnswtr210-fill-merged" stroke="none" fill="#666666" fill-opacity="1"><g><path d="M280 280L190 226 V280L280 334 V280"></path></g></g><g id="cp_0_g-0_1ha2tnswtr210-fill-merged" stroke="none" fill="#666666" fill-opacity="1"><g><path d="M190 388L100 334 V389L190 442 V388"></path></g></g></g><g id="g-root-cp_1_g-1_18eftewwtr2tp-fill" data-item-order="-570074" transform="translate(356, 548)"><g id="cp_1_g-1_18eftewwtr2tp-fill-merged" stroke="none" fill="#4e88e7" fill-opacity="1"><g><path d="M100 10L10 64L100 118L190 64L100 10 M29 64L100 22L171 64L100 106L29 64"></path></g></g></g><g id="g-root-cp_2_g-2_18eftewwtr2tq-fill" data-item-order="-570070" transform="translate(446, 440)"><g id="cp_2_g-2_18eftewwtr2tq-fill-merged" stroke="none" fill="#3cc583" fill-opacity="1"><g><path d="M100 10L10 64L100 118L190 64L100 10 M29 64L100 22L171 64L100 106L29 64"></path></g></g></g><g id="g-root-cp_3_g-3_13ymbagwtr3lz-fill" data-item-order="-570066" transform="translate(536, 332)"><g id="cp_3_g-3_13ymbagwtr3lz-fill-merged" stroke="none" fill="#92bd39" fill-opacity="1"><g><path d="M100 10L10 64L100 118L190 64L100 10 M29 64L100 22L171 64L100 106L29 64"></path></g></g></g><g id="g-root-cp_4_g-4_13ymbagwtr3m0-fill" data-item-order="-570062" transform="translate(626, 224)"><g id="cp_4_g-4_13ymbagwtr3m0-fill-merged" stroke="none" fill="#e0cb15" fill-opacity="1"><g><path d="M100 10L10 64L100 118L190 64L100 10 M29 64L100 22L171 64L100 106L29 64"></path></g></g></g><g id="g-root-cp_5_g-5_13ymbagwtr3m1-fill" data-item-order="-570058" transform="translate(716, 116)"><g id="cp_5_g-5_13ymbagwtr3m1-fill-merged" stroke="none" fill="#de8431" fill-opacity="1"><g><path d="M100 10L10 64L100 118L190 64L100 10 M29 64L100 22L171 64L100 106L29 64"></path></g></g></g><g id="g-root-cp_2_text-2_zist60wtr4ea-fill" data-item-order="-570044" transform="translate(170, 458)"><g id="cp_2_text-2_zist60wtr4ea-fill-merged" stroke="none" fill="#3cc583" fill-opacity="1"><g><path d="M10 10 H16 V82 H10 V10"></path></g></g></g><g id="g-root-cp_3_text-3_zist60wtr4eb-fill" data-item-order="-570030" transform="translate(260, 338)"><g id="cp_3_text-3_zist60wtr4eb-fill-merged" stroke="none" fill="#92bd39" fill-opacity="1"><g><path d="M10 10 H16 V106 H10 V10"></path></g></g></g><g id="g-root-cp_1_text-1_qnsa08wtr218-fill" data-item-order="-570016" transform="translate(80, 572)"><g id="cp_1_text-1_qnsa08wtr218-fill-merged" stroke="none" fill="#4e88e7" fill-opacity="1"><g><path d="M10 10 H16 V106 H10 V10"></path></g></g></g><g id="g-root-cp_4_text-4_qnsa08wtr219-fill" data-item-order="-570000" transform="translate(350, 230)"><g id="cp_4_text-4_qnsa08wtr219-fill-merged" stroke="none" fill="#e0cb15" fill-opacity="1"><g><path d="M10 10 H16 V106 H10 V10"></path></g></g></g><g id="g-root-cp_5_text-5_m7yrvswtr2ti-fill" data-item-order="-569986" transform="translate(440, 110)"><g id="cp_5_text-5_m7yrvswtr2ti-fill-merged" stroke="none" fill="#de8431" fill-opacity="1"><g><path d="M10 10 H16 V130 H10 V10"></path></g></g></g><g id="g-root-tx_llm_mcc6ncwtr3m4-fill" data-item-order="0" transform="translate(368, 266)"><g id="tx_llm_mcc6ncwtr3m4-fill-merged" stroke="none" fill="#484848" fill-opacity="1"><g><text style="font: 15px Roboto, sans-serif; white-space: pre;" font-size="15px" font-family="Roboto, sans-serif"><tspan x="12" y="30.5" dominant-baseline="ideographic">“检索（向量 / 统计）+LLM 生</tspan><tspan x="12" y="48.5" dominant-baseline="ideographic">成” 闭环，LLM 解析意图、整</tspan><tspan x="12" y="66.5" dominant-baseline="ideographic">合信息生成答案</tspan></text></g></g></g><g id="g-root-ic_chip_4o6jl4wtk1e5-fill" data-item-order="0" transform="translate(692, 254)"></g><g id="g-root-tx_3_8zmq3swtr30v-fill" data-item-order="0" transform="translate(206, 338)"><g id="tx_3_8zmq3swtr30v-fill-merged" stroke="none" fill="#92bd39" fill-opacity="1"><g><text style="font: bold 25px Roboto, sans-serif; white-space: pre;" font-weight="bold" font-size="25px" font-family="Roboto, sans-serif"><tspan x="14.82" y="42.5" dominant-baseline="ideographic">3</tspan></text></g></g></g><g id="g-root-tx_llm_v7z6w8wtr2tf-fill" data-item-order="0" transform="translate(368, 230)"><g id="tx_llm_v7z6w8wtr2tf-fill-merged" stroke="none" fill="#e0cb15" fill-opacity="1"><g><text style="font: bold 20px Roboto, sans-serif; white-space: pre;" font-weight="bold" font-size="20px" font-family="Roboto, sans-serif"><tspan x="12" y="33.5" dominant-baseline="ideographic">LLM增强检索(RAG)</tspan></text></g></g></g><g id="g-root-tx__1lu9qjswtr2td-fill" data-item-order="0" transform="translate(98, 608)"><g id="tx__1lu9qjswtr2td-fill-merged" stroke="none" fill="#484848" fill-opacity="1"><g><text style="font: 15px Roboto, sans-serif; white-space: pre;" font-size="15px" font-family="Roboto, sans-serif"><tspan x="12" y="30.5" dominant-baseline="ideographic">基于布尔逻辑</tspan><tspan x="12" y="48.5" dominant-baseline="ideographic">（AND/OR/NOT）的精确关键</tspan><tspan x="12" y="66.5" dominant-baseline="ideographic">词匹配</tspan></text></g></g></g><g id="g-root-tx_4_91i5d4wtr219-fill" data-item-order="0" transform="translate(296, 230)"><g id="tx_4_91i5d4wtr219-fill-merged" stroke="none" fill="#e0cb15" fill-opacity="1"><g><text style="font: bold 25px Roboto, sans-serif; white-space: pre;" font-weight="bold" font-size="25px" font-family="Roboto, sans-serif"><tspan x="14.82" y="42.5" dominant-baseline="ideographic">4</tspan></text></g></g></g><g id="g-root-tx__4hxsq0wtr4su-fill" data-item-order="0" transform="translate(278, 374)"><g id="tx__4hxsq0wtr4su-fill-merged" stroke="none" fill="#484848" fill-opacity="1"><g><text style="font: 15px Roboto, sans-serif; white-space: pre;" font-size="15px" font-family="Roboto, sans-serif"><tspan x="12" y="30.5" dominant-baseline="ideographic">基于深度学习（BERT/Sentence-</tspan><tspan x="12" y="48.5" dominant-baseline="ideographic">BERT）将文本转为语义向量，通过</tspan><tspan x="12" y="66.5" dominant-baseline="ideographic">余弦相似度匹配</tspan></text></g></g></g><g id="g-root-ic_1_4hbbmwwtipl9-fill" data-item-order="0" transform="translate(602, 362)"></g><g id="g-root-tx__1qbc6ugwtr47b-fill" data-item-order="0" transform="translate(458, 170)"><g id="tx__1qbc6ugwtr47b-fill-merged" stroke="none" fill="#484848" fill-opacity="1"><g><text style="font: 15px Roboto, sans-serif; white-space: pre;" font-size="15px" font-family="Roboto, sans-serif"><tspan x="12" y="30.5" dominant-baseline="ideographic">基于 RAG 引入多轮交互 + 动</tspan><tspan x="12" y="48.5" dominant-baseline="ideographic">态检索，LLM 主动澄清需求、</tspan><tspan x="12" y="66.5" dominant-baseline="ideographic">补全信息缺口</tspan></text></g></g></g><g id="g-root-tx_2_v48cdkwtr4ss-fill" data-item-order="0" transform="translate(116, 458)"><g id="tx_2_v48cdkwtr4ss-fill-merged" stroke="none" fill="#3cc583" fill-opacity="1"><g><text style="font: bold 25px Roboto, sans-serif; white-space: pre;" font-weight="bold" font-size="25px" font-family="Roboto, sans-serif"><tspan x="14.82" y="42.5" dominant-baseline="ideographic">2</tspan></text></g></g></g><g id="g-root-ic_disc_958zvswtmubw-fill" data-item-order="0" transform="translate(782, 146)"></g><g id="g-root-tx__qn5w2wwtr3ex-fill" data-item-order="0" transform="translate(188, 458)"><g id="tx__qn5w2wwtr3ex-fill-merged" stroke="none" fill="#3cc583" fill-opacity="1"><g><text style="font: bold 20px Roboto, sans-serif; white-space: pre;" font-weight="bold" font-size="20px" font-family="Roboto, sans-serif"><tspan x="12" y="33.5" dominant-baseline="ideographic">统计型检索</tspan></text></g></g></g><g id="g-root-ic_grap_1umsdd4wta9dy-fill" data-item-order="0" transform="translate(512, 470)"></g><g id="g-root-tx__vcfcwtr3ey-fill" data-item-order="0" transform="translate(188, 494)"><g id="tx__vcfcwtr3ey-fill-merged" stroke="none" fill="#484848" fill-opacity="1"><g><text style="font: 15px Roboto, sans-serif; white-space: pre;" font-size="15px" font-family="Roboto, sans-serif"><tspan x="12" y="27.5" dominant-baseline="ideographic">以 TF-IDF、BM25 为核心，通过词</tspan><tspan x="12" y="45.5" dominant-baseline="ideographic">频 / 稀缺性计算相关性并排序</tspan></text></g></g></g><g id="g-root-tx__4lon8owtr2ti-fill" data-item-order="0" transform="translate(458, 110)"><g id="tx__4lon8owtr2ti-fill-merged" stroke="none" fill="#de8431" fill-opacity="1"><g><text style="font: bold 20px Roboto, sans-serif; white-space: pre;" font-weight="bold" font-size="20px" font-family="Roboto, sans-serif"><tspan x="12" y="33.5" dominant-baseline="ideographic">深度多轮检索</tspan><tspan x="12" y="57.5" dominant-baseline="ideographic">(DeepSearch)</tspan></text></g></g></g><g id="g-root-tx_1_18it86gwtr4ea-fill" data-item-order="0" transform="translate(26, 572)"><g id="tx_1_18it86gwtr4ea-fill-merged" stroke="none" fill="#4e88e7" fill-opacity="1"><g><text style="font: bold 25px Roboto, sans-serif; white-space: pre;" font-weight="bold" font-size="25px" font-family="Roboto, sans-serif"><tspan x="14.82" y="42.5" dominant-baseline="ideographic">1</tspan></text></g></g></g><g id="g-root-tx_5_1d0i5k8wtr2mg-fill" data-item-order="0" transform="translate(386, 110)"><g id="tx_5_1d0i5k8wtr2mg-fill-merged" stroke="none" fill="#de8431" fill-opacity="1"><g><text style="font: bold 25px Roboto, sans-serif; white-space: pre;" font-weight="bold" font-size="25px" font-family="Roboto, sans-serif"><tspan x="14.82" y="42.5" dominant-baseline="ideographic">5</tspan></text></g></g></g><g id="g-root-tx__1qa38o8wtr214-fill" data-item-order="0" transform="translate(98, 572)"><g id="tx__1qa38o8wtr214-fill-merged" stroke="none" fill="#4e88e7" fill-opacity="1"><g><text style="font: bold 20px Roboto, sans-serif; white-space: pre;" font-weight="bold" font-size="20px" font-family="Roboto, sans-serif"><tspan x="12" y="33.5" dominant-baseline="ideographic">布尔检索</tspan></text></g></g></g><g id="g-root-ic_1_4hb8h4wtr20w-fill" data-item-order="0" transform="translate(422, 578)"></g><g id="g-root-tx__hteb3cwtr37x-fill" data-item-order="0" transform="translate(278, 338)"><g id="tx__hteb3cwtr37x-fill-merged" stroke="none" fill="#92bd39" fill-opacity="1"><g><text style="font: bold 20px Roboto, sans-serif; white-space: pre;" font-weight="bold" font-size="20px" font-family="Roboto, sans-serif"><tspan x="12" y="33.5" dominant-baseline="ideographic">向量检索</tspan></text></g></g></g><g id="g-root-tf_zlapigwtmuiy-stroke" data-item-order="-1053000"></g><g id="g-root-cp_0_g-0_1ha2tnswtr210-stroke" data-item-order="-570086" transform="translate(356, 170)"><g id="cp_0_g-0_1ha2tnswtr210-stroke" fill="none" stroke-linecap="round" stroke-linejoin="round" stroke-miterlimit="4" stroke="#ffffff" stroke-width="2" stroke-opacity="1"><g><path d="M 460 64L 550 10L 550 25.2042L 472 72.0089L 472 125.9996L 382 180.0119L 382 233.9815L 292 288.009L 292 342L 202 396.009L 202 450.1089L 100 511.6089L 10 457.6089L 10 442L 100 496L 190 442L 190 388L 280 334L 280 280L 370 226L 370 172.0029L 460 118L 460 64Z"></path></g></g><g id="cp_0_g-0_1ha2tnswtr210-stroke" fill="none" stroke-linecap="round" stroke-linejoin="round" stroke-miterlimit="4" stroke="#ffffff" stroke-width="2" stroke-opacity="1"><g><path d="M 460 64L 370 10L 370 64L 460 118L 460 64Z"></path></g></g><g id="cp_0_g-0_1ha2tnswtr210-stroke" fill="none" stroke-linecap="round" stroke-linejoin="round" stroke-miterlimit="4" stroke="#ffffff" stroke-width="2" stroke-opacity="1"><g><path d="M 370 172L 280 118L 280 172L 370 226L 370 172Z"></path></g></g><g id="cp_0_g-0_1ha2tnswtr210-stroke" fill="none" stroke-linecap="round" stroke-linejoin="round" stroke-miterlimit="4" stroke="#ffffff" stroke-width="2" stroke-opacity="1"><g><path d="M 280 280L 190 226L 190 280L 280 334L 280 280Z"></path></g></g><g id="cp_0_g-0_1ha2tnswtr210-stroke" fill="none" stroke-linecap="round" stroke-linejoin="round" stroke-miterlimit="4" stroke="#ffffff" stroke-width="2" stroke-opacity="1"><g><path d="M 190 388L 100 334L 100 389L 190 442L 190 388Z"></path></g></g></g><g id="g-root-cp_1_g-1_18eftewwtr2tp-stroke" data-item-order="-570074" transform="translate(356, 548)"><g id="cp_1_g-1_18eftewwtr2tp-stroke" fill="none" stroke-linecap="round" stroke-linejoin="round" stroke-miterlimit="4" stroke="#ffffff" stroke-width="2" stroke-opacity="1"><g><path d="M 100 10L 10 64L 100 118L 190 64L 100 10ZM 29 64L 100 22L 171 64L 100 106L 29 64Z"></path></g></g></g><g id="g-root-cp_2_g-2_18eftewwtr2tq-stroke" data-item-order="-570070" transform="translate(446, 440)"><g id="cp_2_g-2_18eftewwtr2tq-stroke" fill="none" stroke-linecap="round" stroke-linejoin="round" stroke-miterlimit="4" stroke="#ffffff" stroke-width="2" stroke-opacity="1"><g><path d="M 100 10L 10 64L 100 118L 190 64L 100 10ZM 29 64L 100 22L 171 64L 100 106L 29 64Z"></path></g></g></g><g id="g-root-cp_3_g-3_13ymbagwtr3lz-stroke" data-item-order="-570066" transform="translate(536, 332)"><g id="cp_3_g-3_13ymbagwtr3lz-stroke" fill="none" stroke-linecap="round" stroke-linejoin="round" stroke-miterlimit="4" stroke="#ffffff" stroke-width="2" stroke-opacity="1"><g><path d="M 100 10L 10 64L 100 118L 190 64L 100 10ZM 29 64L 100 22L 171 64L 100 106L 29 64Z"></path></g></g></g><g id="g-root-cp_4_g-4_13ymbagwtr3m0-stroke" data-item-order="-570062" transform="translate(626, 224)"><g id="cp_4_g-4_13ymbagwtr3m0-stroke" fill="none" stroke-linecap="round" stroke-linejoin="round" stroke-miterlimit="4" stroke="#ffffff" stroke-width="2" stroke-opacity="1"><g><path d="M 100 10L 10 64L 100 118L 190 64L 100 10ZM 29 64L 100 22L 171 64L 100 106L 29 64Z"></path></g></g></g><g id="g-root-cp_5_g-5_13ymbagwtr3m1-stroke" data-item-order="-570058" transform="translate(716, 116)"><g id="cp_5_g-5_13ymbagwtr3m1-stroke" fill="none" stroke-linecap="round" stroke-linejoin="round" stroke-miterlimit="4" stroke="#ffffff" stroke-width="2" stroke-opacity="1"><g><path d="M 100 10L 10 64L 100 118L 190 64L 100 10ZM 29 64L 100 22L 171 64L 100 106L 29 64Z"></path></g></g></g><g id="g-root-cp_2_text-2_zist60wtr4ea-stroke" data-item-order="-570044" transform="translate(170, 458)"><g id="cp_2_text-2_zist60wtr4ea-stroke" fill="none" stroke-linecap="round" stroke-linejoin="round" stroke-miterlimit="4" stroke="#ffffff" stroke-width="2" stroke-opacity="1"><g><path d="M 10 10L 16 10L 16 82L 10 82Z"></path></g></g></g><g id="g-root-cp_3_text-3_zist60wtr4eb-stroke" data-item-order="-570030" transform="translate(260, 338)"><g id="cp_3_text-3_zist60wtr4eb-stroke" fill="none" stroke-linecap="round" stroke-linejoin="round" stroke-miterlimit="4" stroke="#ffffff" stroke-width="2" stroke-opacity="1"><g><path d="M 10 10L 16 10L 16 106L 10 106Z"></path></g></g></g><g id="g-root-cp_1_text-1_qnsa08wtr218-stroke" data-item-order="-570016" transform="translate(80, 572)"><g id="cp_1_text-1_qnsa08wtr218-stroke" fill="none" stroke-linecap="round" stroke-linejoin="round" stroke-miterlimit="4" stroke="#ffffff" stroke-width="2" stroke-opacity="1"><g><path d="M 10 10L 16 10L 16 106L 10 106Z"></path></g></g></g><g id="g-root-cp_4_text-4_qnsa08wtr219-stroke" data-item-order="-570000" transform="translate(350, 230)"><g id="cp_4_text-4_qnsa08wtr219-stroke" fill="none" stroke-linecap="round" stroke-linejoin="round" stroke-miterlimit="4" stroke="#ffffff" stroke-width="2" stroke-opacity="1"><g><path d="M 10 10L 16 10L 16 106L 10 106Z"></path></g></g></g><g id="g-root-cp_5_text-5_m7yrvswtr2ti-stroke" data-item-order="-569986" transform="translate(440, 110)"><g id="cp_5_text-5_m7yrvswtr2ti-stroke" fill="none" stroke-linecap="round" stroke-linejoin="round" stroke-miterlimit="4" stroke="#ffffff" stroke-width="2" stroke-opacity="1"><g><path d="M 10 10L 16 10L 16 130L 10 130Z"></path></g></g></g><g id="g-root-tx_llm_mcc6ncwtr3m4-stroke" data-item-order="0" transform="translate(368, 266)"></g><g id="g-root-ic_chip_4o6jl4wtk1e5-stroke" data-item-order="0" transform="translate(692, 254)"><g id="ic_chip_4o6jl4wtk1e5-stroke" fill="none" stroke-linecap="round" stroke-linejoin="round" stroke-miterlimit="4" stroke="#484848" stroke-width="2" stroke-opacity="1"><g><path d="M 28.278 18.771999C 30.214836 18.118927 31.347731 16.110697 30.904995 14.115247C 30.462257 12.119797 28.586336 10.77914 26.555042 11.00649C 24.52375 11.233839 22.990633 12.956045 23 15C 23.005421 15.361034 23.059917 15.719655 23.161999 16.066C 22.939999 16.046 22.726 16 22.5 16C 19.64325 15.986053 17.029131 17.603924 15.767223 20.166893C 14.505317 22.729862 14.817009 25.788288 16.57 28.044001C 13.438807 28.258814 11.008611 30.861448 11.008611 34C 11.008611 37.13855 13.438807 39.741184 16.57 39.956001C 14.817009 42.211712 14.505317 45.270138 15.767223 47.833107C 17.029131 50.396076 19.64325 52.013947 22.5 52C 22.726 52 22.939999 51.953999 23.161999 51.933998C 22.567677 54.036442 23.770287 56.226803 25.863207 56.853825C 27.956127 57.480846 30.16497 56.312527 30.824539 54.229633C 31.484108 52.14674 30.350359 49.919956 28.278 49.228001M 39.722 18.771999C 37.785164 18.118927 36.652267 16.110697 37.095005 14.115247C 37.537743 12.119797 39.413666 10.77914 41.444958 11.00649C 43.47625 11.233839 45.009369 12.956045 45 15C 44.994579 15.361034 44.940079 15.719655 44.838001 16.066C 45.060001 16.046 45.273998 16 45.5 16C 48.35675 15.986053 50.970871 17.603924 52.232777 20.166893C 53.494682 22.729862 53.182991 25.788288 51.43 28.044001C 54.561192 28.258814 56.99139 30.861448 56.99139 34C 56.99139 37.13855 54.561192 39.741184 51.43 39.956001C 53.182991 42.211712 53.494682 45.270138 52.232777 47.833107C 50.970871 50.396076 48.35675 52.013947 45.5 52C 45.273998 52 45.060001 51.953999 44.838001 51.933998C 45.432323 54.036442 44.229713 56.226803 42.136795 56.853825C 40.043873 57.480846 37.83503 56.312527 37.175461 54.229633C 36.515892 52.14674 37.649643 49.919956 39.722 49.228001M 31 14.8C 32.856407 13.728203 35.143593 13.728203 37 14.8M 37 53.200001C 35.143593 54.271797 32.856407 54.271797 31 53.200001M 28 26L 40 26C 40 26 42 26 42 28L 42 40C 42 40 42 42 40 42L 28 42C 28 42 26 42 26 40L 26 28C 26 28 26 26 28 26M 30 22L 30 26M 38 22L 38 26M 22 38L 26 38M 22 30L 26 30M 38 46L 38 42M 30 46L 30 42M 46 30L 42 30M 46 38L 42 38"></path></g></g></g><g id="g-root-tx_3_8zmq3swtr30v-stroke" data-item-order="0" transform="translate(206, 338)"></g><g id="g-root-tx_llm_v7z6w8wtr2tf-stroke" data-item-order="0" transform="translate(368, 230)"></g><g id="g-root-tx__1lu9qjswtr2td-stroke" data-item-order="0" transform="translate(98, 608)"></g><g id="g-root-tx_4_91i5d4wtr219-stroke" data-item-order="0" transform="translate(296, 230)"></g><g id="g-root-tx__4hxsq0wtr4su-stroke" data-item-order="0" transform="translate(278, 374)"></g><g id="g-root-ic_1_4hbbmwwtipl9-stroke" data-item-order="0" transform="translate(602, 362)"><g id="ic_1_4hbbmwwtipl9-stroke" fill="none" stroke-linecap="round" stroke-linejoin="round" stroke-miterlimit="4" stroke="#484848" stroke-width="2" stroke-opacity="1"><g><path d="M 16.348 45.931999L 12 57M 18 57L 19.785999 47M 51.652 45.931999L 56 57M 50 57L 48.214001 47M 38.664001 34.732002L 45.880001 40.503998M 22.119999 40.503998L 29.334 34.732002M 18.622 39.035999L 17.66 28.938M 30.195999 48.223999L 22.614 44.686001M 45.383999 44.688L 37.804001 48.223999M 50.334 29L 49.377998 39.026001M 37.697998 16.524L 47.414001 20.524M 20.584 20.524L 30.304001 16.521999M 15 43C 15 45.209141 16.790861 47 19 47C 21.209139 47 23 45.209141 23 43C 23 40.790863 21.209139 39 19 39C 16.790861 39 15 40.790863 15 43ZM 30 15C 30 17.209139 31.790861 19 34 19C 36.209137 19 38 17.209139 38 15C 38 12.790861 36.209137 11 34 11C 31.790861 11 30 12.790861 30 15ZM 12 24C 12 26.761423 14.238577 29 17 29C 19.761425 29 22 26.761423 22 24C 22 21.238577 19.761425 19 17 19C 14.238577 19 12 21.238577 12 24ZM 45 43C 45 45.209141 46.790859 47 49 47C 51.209141 47 53 45.209141 53 43C 53 40.790863 51.209141 39 49 39C 46.790859 39 45 40.790863 45 43ZM 46 24C 46 26.761423 48.238575 29 51 29C 53.761425 29 56 26.761423 56 24C 56 21.238577 53.761425 19 51 19C 48.238575 19 46 21.238577 46 24ZM 28.43 28.771999L 19 25M 49 25L 39.566002 28.774M 34 19L 34 25M 36.214001 36.576L 39 57M 29 57L 31.785999 36.576M 28 31C 28 34.313709 30.686293 37 34 37C 37.313709 37 40 34.313709 40 31C 40 27.686293 37.313709 25 34 25C 30.686293 25 28 27.686293 28 31Z"></path></g></g></g><g id="g-root-tx__1qbc6ugwtr47b-stroke" data-item-order="0" transform="translate(458, 170)"></g><g id="g-root-tx_2_v48cdkwtr4ss-stroke" data-item-order="0" transform="translate(116, 458)"></g><g id="g-root-ic_disc_958zvswtmubw-stroke" data-item-order="0" transform="translate(782, 146)"><g id="ic_disc_958zvswtmubw-stroke" fill="none" stroke-linecap="round" stroke-linejoin="round" stroke-miterlimit="4" stroke="#484848" stroke-width="2" stroke-opacity="1"><g><path d="M 57 34C 57 46.702549 46.702549 57 34 57L 11 57L 11 34C 11 21.297451 21.297451 11 34 11C 46.702549 11 57 21.297451 57 34ZM 44 49.200001C 50.151592 44.90403 51.988098 36.612541 48.225922 30.120741C 44.463745 23.628939 36.35656 21.100094 29.570751 24.301697C 22.784945 27.503302 19.581755 35.368484 22.200001 42.400002L 19.119999 48.880001L 26.280001 48.240002C 31.261387 52.601048 38.576622 52.997356 44 49.200001ZM 18.799999 24C 23.095974 17.84841 31.387459 16.011904 37.879261 19.77408C 44.371063 23.536257 46.89991 31.643442 43.698303 38.429249C 40.4967 45.215057 32.631516 48.418247 25.6 45.799999L 19.119999 48.880001L 19.76 41.720001C 15.398954 36.738613 15.002644 29.423378 18.799999 24Z"></path></g></g></g><g id="g-root-tx__qn5w2wwtr3ex-stroke" data-item-order="0" transform="translate(188, 458)"></g><g id="g-root-ic_grap_1umsdd4wta9dy-stroke" data-item-order="0" transform="translate(512, 470)"><g id="ic_grap_1umsdd4wta9dy-stroke" fill="none" stroke-linecap="round" stroke-linejoin="round" stroke-miterlimit="4" stroke="#484848" stroke-width="2" stroke-opacity="1"><g><path d="M 23.444 22L 23.444 38L 47.444 38M 29.444 31L 29.444 38M 35.444 28L 35.444 38M 41.444 24L 41.444 38M 34.444 12C 21.742001 12 11.444 20.506001 11.444 31C 11.552053 36.291878 14.052634 41.249649 18.243999 44.481998L 13.444 56L 26.188 48.717999C 28.857613 49.567719 31.64242 50.000145 34.444 50C 47.147999 50 57.444 41.493999 57.444 31C 57.444 20.506001 47.147999 12 34.444 12Z"></path></g></g></g><g id="g-root-tx__vcfcwtr3ey-stroke" data-item-order="0" transform="translate(188, 494)"></g><g id="g-root-tx__4lon8owtr2ti-stroke" data-item-order="0" transform="translate(458, 110)"></g><g id="g-root-tx_1_18it86gwtr4ea-stroke" data-item-order="0" transform="translate(26, 572)"></g><g id="g-root-tx_5_1d0i5k8wtr2mg-stroke" data-item-order="0" transform="translate(386, 110)"></g><g id="g-root-tx__1qa38o8wtr214-stroke" data-item-order="0" transform="translate(98, 572)"></g><g id="g-root-ic_1_4hb8h4wtr20w-stroke" data-item-order="0" transform="translate(422, 578)"><g id="ic_1_4hb8h4wtr20w-stroke" fill="none" stroke-linecap="round" stroke-linejoin="round" stroke-miterlimit="4" stroke="#484848" stroke-width="2" stroke-opacity="1"><g><path d="M 17 53.080002L 17 57M 17 31.559999L 17 49.18M 17 11L 17 27.639999M 51 53.080002L 51 57M 51 31.559999L 51 49.18M 51 11L 51 27.639999M 55.040001 27.639999L 13.04 27.639999C 11.935431 27.639999 11.04 28.535431 11.04 29.639999C 11.04 30.74457 11.935431 31.639999 13.04 31.639999L 55.040001 31.639999C 56.144569 31.639999 57.040001 30.74457 57.040001 29.639999C 57.040001 28.535431 56.144569 27.639999 55.040001 27.639999ZM 55.040001 49.18L 13.04 49.18C 12.23816 48.997257 11.406192 49.32399 10.942991 50.00354C 10.47979 50.683086 10.47979 51.576912 10.942991 52.256462C 11.406192 52.936008 12.23816 53.262741 13.04 53.080002L 55.040001 53.080002C 55.841839 53.262741 56.673809 52.936008 57.137009 52.256462C 57.600208 51.576912 57.600208 50.683086 57.137009 50.00354C 56.673809 49.32399 55.841839 48.997257 55.040001 49.18ZM 41.360001 37.419998L 45.240002 37.419998C 45.792286 37.419998 46.240002 37.867714 46.240002 38.419998L 46.240002 49.16L 46.240002 49.16L 40.360001 49.16L 40.360001 49.16L 40.360001 38.419998C 40.360001 37.867714 40.807716 37.419998 41.360001 37.419998ZM 35.48 39.379997L 39.360001 39.379997C 39.912285 39.379997 40.360001 39.827713 40.360001 40.379997L 40.360001 49.16L 40.360001 49.16L 34.48 49.16L 34.48 49.16L 34.48 40.379997C 34.48 39.827713 34.927715 39.379997 35.48 39.379997ZM 23.74 35.459999L 27.620001 35.459999C 28.172285 35.459999 28.620001 35.907715 28.620001 36.459999L 28.620001 49.16L 28.620001 49.16L 22.74 49.16L 22.74 49.16L 22.74 36.459999C 22.74 35.907715 23.187716 35.459999 23.74 35.459999ZM 29.620001 37.419998L 33.5 37.419998C 34.052284 37.419998 34.5 37.867714 34.5 38.419998L 34.5 49.16L 34.5 49.16L 28.620001 49.16L 28.620001 49.16L 28.620001 38.419998C 28.620001 37.867714 29.067715 37.419998 29.620001 37.419998ZM 26.66 27.58L 20.779999 27.58L 20.779999 27.58L 20.779999 14.940001C 20.779999 14.387714 21.227716 13.940001 21.779999 13.940001L 25.66 13.940001C 26.212284 13.940001 26.66 14.387714 26.66 14.940001L 26.66 27.58L 26.66 27.58ZM 41.415466 27.061232L 38.231339 24.844082C 38.231339 24.844082 37.41069 24.272654 37.982117 23.452002L 44.66785 13.850386C 44.66785 13.850386 45.239281 13.029736 46.059933 13.601166L 49.244057 15.818314C 49.244057 15.818314 50.064709 16.389744 49.493279 17.210396L 42.807549 26.812012C 42.807549 26.812012 42.236118 27.632662 41.415466 27.061232M 32.540001 27.640001L 26.66 27.640001L 26.66 27.640001L 26.66 16.900002C 26.66 16.347715 27.107716 15.900002 27.66 15.900002L 31.540001 15.900002C 32.092285 15.900002 32.540001 16.347715 32.540001 16.900002L 32.540001 27.640001L 32.540001 27.640001Z"></path></g></g></g><g id="g-root-tx__hteb3cwtr37x-stroke" data-item-order="0" transform="translate(278, 338)"></g></g></g></svg>