<?xml version="1.0" encoding="utf-8" standalone="yes"?>
<!DOCTYPE svg PUBLIC "-//W3C//DTD SVG 1.1//EN" "http://www.w3.org/Graphics/SVG/1.1/DTD/svg11.dtd">
<svg style="fill:none;stroke:none;fill-rule:evenodd;clip-rule:evenodd;stroke-linecap:round;stroke-linejoin:round;stroke-miterlimit:1.5;" version="1.1" xmlns="http://www.w3.org/2000/svg" xmlns:xlink="http://www.w3.org/1999/xlink" width="792" height="378" viewBox="0 0 792 378"><style class="text-font-style fontImports" data-font-family="Roboto">@import url(https://fonts.googleapis.com/css2?family=Roboto:wght@400;700&amp;amp;display=block);</style><rect id="" x="0" y="0" width="792" height="378" style="fill: #ffffff;"></rect><g id="items" style="isolation: isolate"><g id="blend" style="mix-blend-mode: normal"><g id="g-root-tf_qssc2yw9qh34-fill" data-item-order="-449064"><g id="tf_qssc2yw9qh34-fill-merged" stroke="none" fill="#ffffff" fill-opacity="1"><g><path d="M0 0 H792 V378 H0 V0"></path></g></g></g><g id="g-root-sy_3_line_qqwzzew9dvyc-fill" data-item-order="-38843" transform="translate(302, 164)"></g><g id="g-root-sy_1_line_qqwzzew9dvyd-fill" data-item-order="-38837" transform="translate(301.9999084472656, 56)"></g><g id="g-root-sy_2_line_hvwgtmw9dtla-fill" data-item-order="-38831" transform="translate(301.9997863769531, 164)"></g><g id="g-root-sy_0_line_hvwgtmw9dtlb-fill" data-item-order="-38827" transform="translate(230, 164)"></g><g id="g-root-ic_sear_4l2ip6w9chdu-fill" data-item-order="0" transform="translate(422, 38)"></g><g id="g-root-tx__1d14w16w9dtzh-fill" data-item-order="0" transform="translate(470, 44)"><g id="tx__1d14w16w9dtzh-fill-merged" stroke="none" fill="#4e88e7" fill-opacity="1"><g><text style="font: bold 20px Roboto, sans-serif; white-space: pre;" font-weight="bold" font-size="20px" font-family="Roboto, sans-serif"><tspan x="12" y="33.5" dominant-baseline="ideographic">多轮动态检索</tspan></text></g></g></g><g id="g-root-ic_robo_dhydyiw9qhhm-fill" data-item-order="0" transform="translate(86, 92)"></g><g id="g-root-tx__6hvl6w9duys-fill" data-item-order="0" transform="translate(470, 80)"><g id="tx__6hvl6w9duys-fill-merged" stroke="none" fill="#484848" fill-opacity="1"><g><text style="font: 20px Roboto, sans-serif; white-space: pre;" font-size="20px" font-family="Roboto, sans-serif"><tspan x="12" y="33.5" dominant-baseline="ideographic">拆解复杂问题为子问题，确保全</tspan><tspan x="12" y="57.5" dominant-baseline="ideographic">面覆盖。</tspan></text></g></g></g><g id="g-root-ic_aler_4jthd6w9nnyf-fill" data-item-order="0" transform="translate(422, 146)"></g><g id="g-root-tx__v9uvjew9dwcm-fill" data-item-order="0" transform="translate(20, 164)"><g id="tx__v9uvjew9dwcm-fill-merged" stroke="none" fill="#484848" fill-opacity="1"><g><text style="font: bold 25px Roboto, sans-serif; white-space: pre;" font-weight="bold" font-size="25px" font-family="Roboto, sans-serif"><tspan x="13.22" y="39.5" dominant-baseline="ideographic">DeepSearch技术</tspan><tspan x="81" y="69.5" dominant-baseline="ideographic">特性</tspan></text></g></g></g><g id="g-root-tx__hx5ezuw9dvrf-fill" data-item-order="0" transform="translate(470, 152)"><g id="tx__hx5ezuw9dvrf-fill-merged" stroke="none" fill="#3cc583" fill-opacity="1"><g><text style="font: bold 20px Roboto, sans-serif; white-space: pre;" font-weight="bold" font-size="20px" font-family="Roboto, sans-serif"><tspan x="12" y="33.5" dominant-baseline="ideographic">需求主动澄清</tspan></text></g></g></g><g id="g-root-tx__143mgiyw9dwjm-fill" data-item-order="0" transform="translate(470, 188)"><g id="tx__143mgiyw9dwjm-fill-merged" stroke="none" fill="#484848" fill-opacity="1"><g><text style="font: 20px Roboto, sans-serif; white-space: pre;" font-size="20px" font-family="Roboto, sans-serif"><tspan x="12" y="33.5" dominant-baseline="ideographic">通过追问关键维度来优化检索策</tspan><tspan x="12" y="57.5" dominant-baseline="ideographic">略。</tspan></text></g></g></g><g id="g-root-ic_head_4nkbvuw9dwcn-fill" data-item-order="0" transform="translate(422, 254)"></g><g id="g-root-tx__1luwh0qw9du6h-fill" data-item-order="0" transform="translate(470, 260)"><g id="tx__1luwh0qw9du6h-fill-merged" stroke="none" fill="#de8431" fill-opacity="1"><g><text style="font: bold 20px Roboto, sans-serif; white-space: pre;" font-weight="bold" font-size="20px" font-family="Roboto, sans-serif"><tspan x="12" y="33.5" dominant-baseline="ideographic">检索-推理协同</tspan></text></g></g></g><g id="g-root-tx__dg2yp6w9dudk-fill" data-item-order="0" transform="translate(470, 296)"><g id="tx__dg2yp6w9dudk-fill-merged" stroke="none" fill="#484848" fill-opacity="1"><g><text style="font: 20px Roboto, sans-serif; white-space: pre;" font-size="20px" font-family="Roboto, sans-serif"><tspan x="12" y="33.5" dominant-baseline="ideographic">融合LLM意图理解与多源检</tspan><tspan x="12" y="57.5" dominant-baseline="ideographic">索，整合信息以生成结构化结</tspan><tspan x="12" y="81.5" dominant-baseline="ideographic">论。</tspan></text></g></g></g><g id="g-root-tf_qssc2yw9qh34-stroke" data-item-order="-449064"></g><g id="g-root-sy_3_line_qqwzzew9dvyc-stroke" data-item-order="-38843" transform="translate(302, 164)"><g id="sy_3_line_qqwzzew9dvyc-stroke" fill="none" stroke-linecap="round" stroke-linejoin="round" stroke-miterlimit="4" stroke="#de8431" stroke-width="2" stroke-opacity="1"><g><path d="M 116 118L 57.95 118C 44.7 118 33.95 107.25 33.95 94L 33.95 33.95C 33.95 20.72 23.23 10 10 10"></path><path d="M 110 124.5L 116.5 118L 110 111.5" stroke-dasharray="none"></path></g></g></g><g id="g-root-sy_1_line_qqwzzew9dvyd-stroke" data-item-order="-38837" transform="translate(301.9999084472656, 56)"><g id="sy_1_line_qqwzzew9dvyd-stroke" fill="none" stroke-linecap="round" stroke-linejoin="round" stroke-miterlimit="4" stroke="#4e88e7" stroke-width="2" stroke-opacity="1"><g><path d="M 116 10L 58.95 10C 45.7 10 34.95 20.75 34.95 34L 34.95 94.05C 34.95 107.28 24.23 118 11 118L 10 118"></path><path d="M 110 16.5L 116.5 10L 110 3.5" stroke-dasharray="none"></path></g></g></g><g id="g-root-sy_2_line_hvwgtmw9dtla-stroke" data-item-order="-38831" transform="translate(301.9997863769531, 164)"><g id="sy_2_line_hvwgtmw9dtla-stroke" fill="none" stroke-linecap="round" stroke-linejoin="round" stroke-miterlimit="4" stroke="#3cc583" stroke-width="2" stroke-opacity="1"><g><path d="M 116 10L 10 10"></path><path d="M 110 16.5L 116.5 10L 110 3.5" stroke-dasharray="none"></path></g></g></g><g id="g-root-sy_0_line_hvwgtmw9dtlb-stroke" data-item-order="-38827" transform="translate(230, 164)"><g id="sy_0_line_hvwgtmw9dtlb-stroke" fill="none" stroke-linecap="round" stroke-linejoin="round" stroke-miterlimit="4" stroke="#484848" stroke-width="2" stroke-opacity="1"><g><path d="M 82 10L 10 10"></path></g></g></g><g id="g-root-ic_sear_4l2ip6w9chdu-stroke" data-item-order="0" transform="translate(422, 38)"><g id="ic_sear_4l2ip6w9chdu-stroke" fill="none" stroke-linecap="round" stroke-linejoin="round" stroke-miterlimit="4" stroke="#484848" stroke-width="2" stroke-opacity="1"><g><path d="M 40.375 20.125L 40.375 14.125C 40.375 12.475 39.025002 11.125 37.375 11.125L 14.125 11.125C 12.475 11.125 11.125 12.475 11.125 14.125L 11.125 20.125M 40.375 20.125L 11.125 20.125M 40.375 20.125L 30.625 20.125M 40.375 20.125L 40.375 25.674999M 11.125 20.125L 11.125 34.824997C 11.125 36.474998 12.475 37.824997 14.125 37.824997L 20.875 37.824997M 11.125 20.125L 20.875 20.125M 20.875 20.125L 20.875 37.824997M 20.875 20.125L 30.625 20.125M 20.875 37.824997L 25.075001 37.824997M 11.125 29.125L 26.875 29.125M 30.625 20.125L 30.625 25.674999M 10 10M 44.875 44.875149L 41.097847 41.098148M 43.074997 36.324997C 43.074997 40.052948 40.052948 43.074997 36.324997 43.074997C 32.59705 43.074997 29.575001 40.052948 29.575001 36.324997C 29.575001 32.597198 32.59705 29.575001 36.324997 29.575001C 40.052948 29.575001 43.074997 32.597198 43.074997 36.324997Z"></path></g></g></g><g id="g-root-tx__1d14w16w9dtzh-stroke" data-item-order="0" transform="translate(470, 44)"></g><g id="g-root-ic_robo_dhydyiw9qhhm-stroke" data-item-order="0" transform="translate(86, 92)"><g id="ic_robo_dhydyiw9qhhm-stroke" fill="none" stroke-linecap="round" stroke-linejoin="round" stroke-miterlimit="4" stroke="#484848" stroke-width="2" stroke-opacity="1"><g><path d="M 55.085503 37.787003C 55.085503 36.852249 55.0205 35.932499 54.894501 35.032497L 57.6675 31.70055C 59.007248 30.090576 59.201752 27.816126 58.154251 26.002174L 57.006996 24.014925C 55.959747 22.200975 53.89275 21.23205 51.828499 21.5874L 47.557751 22.322624C 46.133499 21.208 44.550499 20.286674 42.848251 19.59795L 41.35125 15.5365C 40.626751 13.57115 38.75425 12.265625 36.659752 12.265625L 34.365025 12.265625C 32.270473 12.265625 30.3979 13.57115 29.67355 15.536475L 28.177799 19.5947C 26.475349 20.282175 24.89135 21.202101 23.465425 22.315424L 19.201675 21.581425C 17.137474 21.226074 15.070575 22.195 14.0233 24.008949L 12.87595 25.996201C 11.828668 27.81015 12.023012 30.0846 13.36285 31.694574L 16.12105 35.008751C 15.995375 35.90575 15.9304 36.822502 15.9304 37.754501L 15.9304 37.787003C 15.9304 38.7005 15.99295 39.599499 16.114025 40.48L 13.358975 43.790501C 12.019122 45.400501 11.824778 47.674999 12.87205 49.48875L 14.0194 51.476002C 15.066675 53.290001 17.1336 54.258999 19.1978 53.9035L 23.404774 53.179249C 24.851675 54.318752 26.463625 55.258499 28.199425 55.956749L 29.67285 59.954498C 30.397202 61.91975 32.269775 63.22525 34.364349 63.22525L 36.659 63.22525C 37.7495 63.22525 38.779751 62.871498 39.618999 62.255001M 26.215824 37.751999C 26.215824 42.882 30.369375 47.051003 35.514751 47.051003C 40.644753 47.051003 44.813751 42.897499 44.813751 37.751999C 44.813751 32.606548 40.660252 28.4375 35.514751 28.4375C 30.384874 28.4375 26.215824 32.591049 26.215824 37.7365L 26.215824 37.751999ZM 51.834999 51.424999L 62.800003 51.424999C 62.800003 51.424999 67.800003 51.424999 67.800003 56.424999L 67.800003 62.735001C 67.800003 62.735001 67.800003 67.735001 62.800003 67.735001L 51.834999 67.735001C 51.834999 67.735001 46.834999 67.735001 46.834999 62.735001L 46.834999 56.424999C 46.834999 56.424999 46.834999 51.424999 51.834999 51.424999M 10 10M 57.314499 44.992748L 57.314499 51.425747M 10 10M 53.881752 58.130753L 53.881752 61.035252M 10 10M 60.751999 58.130753L 60.751999 61.035252"></path></g></g></g><g id="g-root-tx__6hvl6w9duys-stroke" data-item-order="0" transform="translate(470, 80)"></g><g id="g-root-ic_aler_4jthd6w9nnyf-stroke" data-item-order="0" transform="translate(422, 146)"><g id="ic_aler_4jthd6w9nnyf-stroke" fill="none" stroke-linecap="round" stroke-linejoin="round" stroke-miterlimit="4" stroke="#484848" stroke-width="2" stroke-opacity="1"><g><path d="M 20.806 24.0625L 35.056 24.0625C 35.056 24.0625 36.931 24.0625 36.931 25.9375L 36.931 42.4375C 36.931 42.4375 36.931 44.3125 35.056 44.3125L 20.806 44.3125C 20.806 44.3125 18.931 44.3125 18.931 42.4375L 18.931 25.9375C 18.931 25.9375 18.931 24.0625 20.806 24.0625M 27.931 11.6875L 27.931 14.938M 39.932499 16.630001L 37.634499 18.927999M 44.875 28.5625L 41.6245 28.5625M 11.125 28.5625L 14.3755 28.5625M 16.067501 16.630001L 18.365499 18.927999M 25.1185 31.9375C 25.1185 30.384201 26.377701 29.125002 27.931 29.125002C 29.484303 29.125002 30.7435 30.384201 30.7435 31.937502C 30.7435 33.490803 29.484303 34.75 27.931 34.75M 27.931 38.125C 27.62034 38.125 27.3685 38.376842 27.3685 38.6875C 27.3685 38.998161 27.62034 39.25 27.931 39.25C 28.241661 39.25 28.4935 38.998161 28.4935 38.6875C 28.4935 38.376842 28.241661 38.125 27.931 38.125L 27.931 38.125"></path></g></g></g><g id="g-root-tx__v9uvjew9dwcm-stroke" data-item-order="0" transform="translate(20, 164)"></g><g id="g-root-tx__hx5ezuw9dvrf-stroke" data-item-order="0" transform="translate(470, 152)"></g><g id="g-root-tx__143mgiyw9dwjm-stroke" data-item-order="0" transform="translate(470, 188)"></g><g id="g-root-ic_head_4nkbvuw9dwcn-stroke" data-item-order="0" transform="translate(422, 254)"><g id="ic_head_4nkbvuw9dwcn-stroke" fill="none" stroke-linecap="round" stroke-linejoin="round" stroke-miterlimit="4" stroke="#484848" stroke-width="2" stroke-opacity="1"><g><path d="M 21.135445 31.387449C 21.611469 33.608948 22.880875 35.671749 24.467649 37.099899L 24.467649 44.875M 36.844448 44.71645L 36.844448 39.956047L 40.176701 39.956047C 41.12875 39.956047 41.76355 39.3214 41.76355 38.36935L 41.76355 34.878399L 43.667652 34.878399C 44.619698 34.878399 45.09565 33.92635 44.7784 33.132999C 43.508949 30.4354 41.76355 27.103149 41.76355 27.103149C 41.76355 22.913725 40.306751 19.400169 35.574997 18.21727C 34.464249 17.899916 33.353649 17.741215 32.242901 17.8999M 23.617706 17.143705C 25.14325 17.143705 26.380001 15.906985 26.380001 14.38144C 26.380001 12.85588 25.14325 11.61916 23.617706 11.61916C 22.092161 11.61916 20.855455 12.85588 20.855455 14.38144C 20.855455 15.906985 22.092161 17.143705 23.617706 17.143705ZM 14.356 27.2992C 15.88156 27.2992 17.11825 26.06245 17.11825 24.536921C 17.11825 23.011375 15.88156 21.774639 14.356 21.774639C 12.830455 21.774639 11.59375 23.011375 11.59375 24.536921C 11.59375 26.06245 12.830455 27.2992 14.356 27.2992ZM 29.304699 24.780685L 24.917576 16.81885M 10 10M 17.11825 25.34935L 24.917576 27.786699"></path></g></g></g><g id="g-root-tx__1luwh0qw9du6h-stroke" data-item-order="0" transform="translate(470, 260)"></g><g id="g-root-tx__dg2yp6w9dudk-stroke" data-item-order="0" transform="translate(470, 296)"></g></g></g></svg>